HIERARCHY
ROOT Pelvis
{
	OFFSET 0.000000 0.000000 0.000000
	CHANNELS 6 Xposition Yposition Zposition Xrotation Yrotation Zrotation
	JOINT LeftUpLeg_virtual
	{
		OFFSET 0.000000 0.000000 0.000000
		CHANNELS 3 Xrotation Yrotation Zrotation
		JOINT LeftUpLeg
		{
			OFFSET 18.735201 -5.666702 -4.541200
			CHANNELS 3 Xrotation Yrotation Zrotation
			JOINT LeftLeg
			{
				OFFSET -0.021200 -31.938179 0.493100
				CHANNELS 3 Xrotation Yrotation Zrotation
				JOINT LeftFoot
				{
					OFFSET 0.021200 -31.938179 -4.336299
					CHANNELS 3 Xrotation Yrotation Zrotation
					JOINT LeftToeBase
					{
						OFFSET 0.943001 -26.722000 15.023500
						CHANNELS 3 Xrotation Yrotation Zrotation
						End Site
						{
							OFFSET 0 0 0
						}
					}
				}
			}
		}
	}
	JOINT RightUpLeg_virtual
	{
		OFFSET 0.000000 0.000000 0.000000
		CHANNELS 3 Xrotation Yrotation Zrotation
		JOINT RightUpLeg
		{
			OFFSET -18.735201 -5.666702 -4.541200
			CHANNELS 3 Xrotation Yrotation Zrotation
			JOINT RightLeg
			{
				OFFSET 0.018946 -31.938133 0.493100
				CHANNELS 3 Xrotation Yrotation Zrotation
				JOINT RightFoot
				{
					OFFSET -0.018946 -31.938126 -4.336299
					CHANNELS 3 Xrotation Yrotation Zrotation
					JOINT RightToeBase
					{
						OFFSET -0.943001 -26.722004 15.023500
						CHANNELS 3 Xrotation Yrotation Zrotation
						End Site
						{
							OFFSET 0 0 0
						}
					}
				}
			}
		}
	}
	JOINT Hips_virtual
	{
		OFFSET 0.000000 0.000000 0.000000
		CHANNELS 3 Xrotation Yrotation Zrotation
		JOINT Hips
		{
			OFFSET -0.000000 -0.000000 -0.000000
			CHANNELS 3 Xrotation Yrotation Zrotation
			JOINT Spine
			{
				OFFSET 0.000000 10.199997 -0.299500
				CHANNELS 3 Xrotation Yrotation Zrotation
				JOINT Spine1
				{
					OFFSET 0.000000 11.900002 -1.516600
					CHANNELS 3 Xrotation Yrotation Zrotation
					JOINT Spine2
					{
						OFFSET 0.000000 13.600006 -2.842500
						CHANNELS 3 Xrotation Yrotation Zrotation
						JOINT Neck_virtual
						{
							OFFSET 0.000000 0.000000 0.000000
							CHANNELS 3 Xrotation Yrotation Zrotation
							JOINT Neck
							{
								OFFSET 0.000000 9.624100 -2.890100
								CHANNELS 3 Xrotation Yrotation Zrotation
								JOINT Head
								{
									OFFSET 0.000000 14.068802 -1.351900
									CHANNELS 3 Xrotation Yrotation Zrotation
									End Site
									{
										OFFSET 0 0 0
									}
								}
							}
						}
						JOINT LeftShoulder_virtual
						{
							OFFSET 0.000000 0.000000 0.000000
							CHANNELS 3 Xrotation Yrotation Zrotation
							JOINT LeftShoulder
							{
								OFFSET 15.263000 10.923401 -0.547700
								CHANNELS 3 Xrotation Yrotation Zrotation
								JOINT LeftArm
								{
									OFFSET 25.438599 -2.830597 -13.032500
									CHANNELS 3 Xrotation Yrotation Zrotation
									JOINT LeftForeArm
									{
										OFFSET 29.960503 0.000000 0.000000
										CHANNELS 3 Xrotation Yrotation Zrotation
										JOINT LeftHand
										{
											OFFSET 27.849251 0.000000 0.000000
											CHANNELS 3 Xrotation Yrotation Zrotation
											End Site
											{
												OFFSET 0 0 0
											}
										}
									}
								}
							}
						}
						JOINT RightShoulder_virtual
						{
							OFFSET 0.000000 0.000000 0.000000
							CHANNELS 3 Xrotation Yrotation Zrotation
							JOINT RightShoulder
							{
								OFFSET -15.263000 10.923401 -0.547700
								CHANNELS 3 Xrotation Yrotation Zrotation
								JOINT RightArm
								{
									OFFSET -25.438599 -2.830597 -13.032500
									CHANNELS 3 Xrotation Yrotation Zrotation
									JOINT RightForeArm
									{
										OFFSET -29.960503 0.000000 0.000000
										CHANNELS 3 Xrotation Yrotation Zrotation
										JOINT RightHand
										{
											OFFSET -27.849251 0.000000 0.000000
											CHANNELS 3 Xrotation Yrotation Zrotation
											End Site
											{
												OFFSET 0 0 0
											}
										}
									}
								}
							}
						}
					}
				}
			}
		}
	}
}
MOTION
Frames: 6
Frame Time: 0.03333333
-0.970675 91.060478 -1.524092 0.000000 0.000000 0.000000 -35.636136 7.183561 4.861248 -83.507996 2.093136 22.651650 87.498616 -7.648106 -1.999261 16.018626 -7.126363 -15.866082 0.000000 0.000000 0.000000 -53.064286 -20.084532 -14.126590 -87.294790 2.259781 -20.337991 85.712795 11.253508 3.003477 14.976424 8.149293 27.972828 0.000000 0.000000 0.000000 -3.688594 -0.671258 -0.217901 -14.243655 6.837538 -0.069508 13.965250 -3.066578 0.725932 9.998570 -0.902931 -1.017580 0.000000 0.000000 0.000000 5.011563 -1.202446 -1.588427 1.044839 0.296539 0.662439 0.000000 0.000000 0.000000 8.476007 0.234836 3.148572 4.231584 -5.938978 25.255179 -56.906520 -19.262725 -12.078772 -11.229593 -44.021782 4.873970 0.000000 0.000000 0.000000 8.653276 -0.036705 -3.891319 8.619564 9.108235 -25.404086 -55.059798 11.829446 -5.901443 -24.168768 54.117973 6.133965 0.000000 0.000000 0.000000 
-0.894784 91.079361 -1.480107 0.000000 0.000000 0.000000 -35.792575 7.449608 4.962865 -83.603004 2.108477 22.655555 87.721547 -7.682969 -1.859132 16.201653 -7.254121 -15.763155 0.000000 0.000000 0.000000 -53.346632 -20.342310 -14.422885 -87.440382 2.271817 -20.406148 85.698349 11.277759 3.056304 15.098668 8.191740 28.055743 0.000000 0.000000 0.000000 -3.717438 -0.551648 -0.211885 -14.374751 6.864506 -0.061352 13.961938 -3.067613 0.767089 10.115669 -0.918488 -0.986480 0.000000 0.000000 0.000000 4.829896 -1.191281 -1.575886 0.976273 0.317262 0.675238 0.000000 0.000000 0.000000 8.576499 0.264293 3.147884 4.185752 -5.884500 25.476670 -57.034313 -19.127115 -12.113870 -11.236480 -43.600598 4.588261 0.000000 0.000000 0.000000 8.691387 -0.040347 -3.822165 8.626234 9.086268 -25.627373 -54.945433 12.044193 -6.188600 -24.374444 54.165692 6.446523 0.000000 0.000000 0.000000 
-0.763087 91.138405 -1.384037 0.000000 0.000000 0.000000 -36.062695 7.921330 5.129181 -83.766738 2.143904 22.653680 88.103853 -7.737110 -1.595510 16.535224 -7.485316 -15.556102 0.000000 0.000000 0.000000 -53.851824 -20.791617 -14.957015 -87.697587 2.296289 -20.529361 85.665605 11.299353 3.138435 15.334342 8.261174 28.164999 0.000000 0.000000 0.000000 -3.770652 -0.363732 -0.193932 -14.631529 6.903201 -0.041917 13.938112 -3.062679 0.847206 10.332352 -0.948052 -0.931858 0.000000 0.000000 0.000000 4.489314 -1.168356 -1.549231 0.854469 0.351726 0.702022 0.000000 0.000000 0.000000 8.762659 0.319008 3.144531 4.098595 -5.806727 25.878818 -57.268903 -18.894443 -12.165661 -11.231794 -42.860557 4.074610 0.000000 0.000000 0.000000 8.759889 -0.044218 -3.689279 8.629739 9.066788 -26.024248 -54.713674 12.497512 -6.684132 -24.729764 54.277113 7.025849 0.000000 0.000000 0.000000 
-0.607053 91.272690 -1.229649 0.000000 0.000000 0.000000 -36.380306 8.500663 5.300057 -83.959615 2.205967 22.630175 88.548191 -7.784138 -1.239623 16.974016 -7.777625 -15.246253 0.000000 0.000000 0.000000 -54.482066 -21.325104 -15.626800 -88.013702 2.332707 -20.683734 85.619010 11.273264 3.209960 15.678704 8.333066 28.205604 0.000000 0.000000 0.000000 -3.838918 -0.184948 -0.155138 -15.005120 6.932857 -0.009815 13.872252 -3.042023 0.962259 10.619450 -0.989172 -0.865802 0.000000 0.000000 0.000000 4.033084 -1.133823 -1.505612 0.704591 0.388583 0.744138 0.000000 0.000000 0.000000 9.011968 0.391328 3.136370 3.978636 -5.754852 26.390855 -57.586493 -18.627946 -12.207851 -11.200486 -41.974347 3.422126 0.000000 0.000000 0.000000 8.850271 -0.043301 -3.502675 8.615828 9.083829 -26.511856 -54.357313 13.215134 -7.263377 -25.144628 54.474085 7.792653 0.000000 0.000000 0.000000 
-0.457787 91.519997 -1.024894 0.000000 0.000000 0.000000 -36.682453 9.084183 5.413240 -84.145520 2.299006 22.568461 88.964327 -7.793703 -0.832909 17.486116 -8.080546 -14.841356 0.000000 0.000000 0.000000 -55.130282 -21.829928 -16.309138 -88.336920 2.377417 -20.837997 85.582742 11.150817 3.225762 16.144358 8.383431 28.072728 0.000000 0.000000 0.000000 -3.908901 -0.082163 -0.088466 -15.487674 6.938585 0.027120 13.757181 -2.999066 1.106864 10.945791 -1.039373 -0.800315 0.000000 0.000000 0.000000 3.520318 -1.089990 -1.441776 0.553916 0.416104 0.801686 0.000000 0.000000 0.000000 9.304475 0.471479 3.123422 3.837132 -5.776580 26.928979 -57.979912 -18.394953 -12.220208 -11.153512 -41.136990 2.718138 0.000000 0.000000 0.000000 8.962106 -0.033303 -3.275526 8.572987 9.160816 -26.998368 -53.867414 14.195898 -7.801692 -25.526039 54.771516 8.651870 0.000000 0.000000 0.000000 
-0.337668 91.911339 -0.797798 0.000000 0.000000 0.000000 -36.928808 9.589226 5.423563 -84.302368 2.422259 22.456137 89.297921 -7.737661 -0.420191 18.068499 -8.345232 -14.356014 0.000000 0.000000 0.000000 -55.701538 -22.216456 -16.882438 -88.627729 2.421412 -20.957346 85.597911 10.894963 3.147036 16.761166 8.396655 27.680366 0.000000 0.000000 0.000000 -3.967142 -0.082036 0.006319 -16.078974 6.915864 0.045661 13.614448 -2.934336 1.274540 11.288250 -1.096741 -0.743315 0.000000 0.000000 0.000000 3.019014 -1.041394 -1.355472 0.426006 0.425691 0.872628 0.000000 0.000000 0.000000 9.631262 0.549379 3.109090 3.686469 -5.901721 27.412831 -58.462349 -18.249263 -12.198280 -11.131676 -40.522536 2.027450 0.000000 0.000000 0.000000 9.108011 -0.011993 -3.022630 8.497647 9.297556 -27.404128 -53.242394 15.395233 -8.209617 -25.803638 55.169849 9.508752 0.000000 0.000000 0.000000 
